# xmcd CD database file
#
# Track frame offsets:
#	150
#	20675
#	38825
#	56800
#	74555
#	90740
#	110543
#	127793
#	149068
#	166855
#
# Disc length: 2475 seconds
#
# Revision: 0
# Processed by: cddbd v1.4PL0 Copyright (c) Steve Scherf et al.
# Submitted via: CDex 1.50
#
DISCID=8f09a90a
DTITLE=Suicide - Why be blue
DYEAR=1992
DGENRE=New Age
TTITLE0=Why be blue
TTITLE1=Cheat-cheat
TTITLE2=Hot ticket
TTITLE3=Universe
TTITLE4=Last time
TTITLE5=Play the dream
TTITLE6=Pump it
TTITLE7=Flashy love
TTITLE8=Chewy-chewy
TTITLE9=Mujo
EXTD=YEAR: 1992
EXTT0=
EXTT1=
EXTT2=
EXTT3=
EXTT4=
EXTT5=
EXTT6=
EXTT7=
EXTT8=
EXTT9=
PLAYORDER=
